<svg xmlns="http://www.w3.org/2000/svg" viewBox="0 0 60 60"><title>19-Warehouse</title><g id="_19-Warehouse" data-name="19-Warehouse"><rect x="18" y="42" width="8" height="4" rx="1" ry="1" style="fill:#f2f2f2"/><path d="M32,38V50a3,3,0,0,1-3,3H15a3,3,0,0,1-3-3V38H32Zm-6,7V43a1,1,0,0,0-1-1H19a1,1,0,0,0-1,1v2a1,1,0,0,0,1,1h6A1,1,0,0,0,26,45Z" style="fill:#e3a76f"/><path d="M34,34v3a1,1,0,0,1-1,1H27l5-5h1A1,1,0,0,1,34,34Z" style="fill:#f2f2f2"/><polygon points="32 33 27 38 22 38 27 33 32 33" style="fill:#c18f5f"/><polygon points="27 33 22 38 17 38 22 33 27 33" style="fill:#f2f2f2"/><polygon points="22 33 17 38 12 38 17 33 22 33" style="fill:#c18f5f"/><path d="M17,33l-5,5H11a1,1,0,0,1-1-1V34a1,1,0,0,1,1-1Z" style="fill:#f2f2f2"/><rect x="12" y="38" width="20" height="3" style="fill:#c39160"/><g id="_Group_" data-name="&lt;Group&gt;"><path d="M54,27V56a3,3,0,0,1-3,3H9a3,3,0,0,1-3-3V27ZM34,37V34a1,1,0,0,0-1-1H11a1,1,0,0,0-1,1v3a1,1,0,0,0,1,1h1V50a3,3,0,0,0,3,3H29a3,3,0,0,0,3-3V38h1A1,1,0,0,0,34,37Z" style="fill:#65b1fc"/><path d="M59,19v4a4,4,0,0,1-4,4H5a4,4,0,0,1-4-4V19Zm-4,4a1,1,0,1,0-1,1A1,1,0,0,0,55,23Zm-4,0a1,1,0,1,0-1,1A1,1,0,0,0,51,23Zm-4,0a1,1,0,1,0-1,1A1,1,0,0,0,47,23Zm-4,0a1,1,0,1,0-1,1A1,1,0,0,0,43,23Zm-4,0a1,1,0,1,0-1,1A1,1,0,0,0,39,23Zm-4,0a1,1,0,1,0-1,1A1,1,0,0,0,35,23Zm-4,0a1,1,0,1,0-1,1A1,1,0,0,0,31,23Zm-4,0a1,1,0,1,0-1,1A1,1,0,0,0,27,23Zm-4,0a1,1,0,1,0-1,1A1,1,0,0,0,23,23Zm-4,0a1,1,0,1,0-1,1A1,1,0,0,0,19,23Zm-4,0a1,1,0,1,0-1,1A1,1,0,0,0,15,23Zm-4,0a1,1,0,1,0-1,1A1,1,0,0,0,11,23ZM7,23a1,1,0,1,0-1,1A1,1,0,0,0,7,23Z" style="fill:#bec3d2"/><polygon points="36 1 40 1 59 19 1 19 20 1 24 1 30 1 36 1" style="fill:#dce1eb"/><circle cx="54" cy="23" r="1" style="fill:#7e8596"/><circle cx="50" cy="23" r="1" style="fill:#7e8596"/><circle cx="46" cy="23" r="1" style="fill:#7e8596"/><circle cx="42" cy="23" r="1" style="fill:#7e8596"/><circle cx="38" cy="23" r="1" style="fill:#7e8596"/><circle cx="34" cy="23" r="1" style="fill:#7e8596"/><circle cx="30" cy="23" r="1" style="fill:#7e8596"/><circle cx="26" cy="23" r="1" style="fill:#7e8596"/><circle cx="22" cy="23" r="1" style="fill:#7e8596"/><circle cx="18" cy="23" r="1" style="fill:#7e8596"/><circle cx="14" cy="23" r="1" style="fill:#7e8596"/><circle cx="10" cy="23" r="1" style="fill:#7e8596"/><circle cx="6" cy="23" r="1" style="fill:#7e8596"/><polygon points="20 1 18 2.895 18 19 24 19 24 1 20 1" style="fill:#bec3d2"/><polygon points="1 19 12 19 12 8.579 1 19" style="fill:#bec3d2"/><polygon points="42 2.895 42 19 48 19 48 8.579 42 2.895" style="fill:#bec3d2"/><rect x="30" y="1" width="6" height="18" style="fill:#bec3d2"/><rect x="6" y="27" width="48" height="3" style="fill:#4a98f7"/><path d="M11,39V50a4,4,0,0,0,4,4H29a4,4,0,0,0,4-4V39a2,2,0,0,0,2-2V34a2,2,0,0,0-2-2H11a2,2,0,0,0-2,2v3A2,2,0,0,0,11,39Zm8.586-5-3,3H14.414l3-3Zm5,0-3,3H19.414l3-3Zm5,0-3,3H24.414l3-3ZM31,50a2,2,0,0,1-2,2H15a2,2,0,0,1-2-2V39H31Zm2-13H29.414l3-3H33ZM11,34h3.586l-3,3H11Z" style="fill:#2b1505"/><path d="M25,41H19a2,2,0,0,0-2,2v2a2,2,0,0,0,2,2h6a2,2,0,0,0,2-2V43A2,2,0,0,0,25,41Zm0,4-6,0V43h6Z" style="fill:#2b1505"/><path d="M59.919,18.607c-.008-.019-.026-.033-.035-.052a1.025,1.025,0,0,0-.189-.27l-.007-.011-19-18A1,1,0,0,0,40,0H20a1,1,0,0,0-.688.274l-19,18-.007.011a1.025,1.025,0,0,0-.189.27c-.009.019-.027.033-.035.052A.994.994,0,0,0,0,19v4a5.006,5.006,0,0,0,5,5V56a4,4,0,0,0,4,4H51a4,4,0,0,0,4-4V28a5.006,5.006,0,0,0,5-5V19A.994.994,0,0,0,59.919,18.607ZM20.4,2H23V15a1,1,0,0,0,2,0V2h4V15a1,1,0,0,0,2,0V2h4V15a1,1,0,0,0,2,0V2h2.6L41,3.325V15a1,1,0,0,0,2,0V5.22l4,3.789V15a1,1,0,0,0,2,0V10.9L56.49,18H3.51L11,10.9V15a1,1,0,0,0,2,0V9.009L17,5.22V15a1,1,0,0,0,2,0V3.325ZM53,56a2,2,0,0,1-2,2H9a2,2,0,0,1-2-2V28H53Zm2-30H5a3,3,0,0,1-3-3V20H58v3A3,3,0,0,1,55,26Z" style="fill:#2b1505"/><path d="M37,41H47.586l-1.293,1.293a1,1,0,1,0,1.414,1.414l3-3a1,1,0,0,0,0-1.414l-3-3a1,1,0,0,0-1.414,1.414L47.586,39H37a1,1,0,0,0,0,2Z" style="fill:#2b1505"/><path d="M36.293,48.707l3,3a1,1,0,0,0,1.414-1.414L39.414,49H49a1,1,0,0,0,0-2H39.414l1.293-1.293a1,1,0,0,0-1.414-1.414l-3,3a1,1,0,0,0,0,1.414Z" style="fill:#2b1505"/></g></g></svg>