<svg xmlns="http://www.w3.org/2000/svg" viewBox="0 0 60 60"><title>11-Scan</title><g id="_11-Scan" data-name="11-Scan"><path d="M56,15V49a6,6,0,0,1-6,6H10a6,6,0,0,1-6-6V15Z" style="fill:#b46e5a"/><path d="M23.18,9.82A1.785,1.785,0,0,0,25,11H35a1.959,1.959,0,0,0,2-2V5H57a2.006,2.006,0,0,1,2,2v6a2.006,2.006,0,0,1-2,2H3a2.006,2.006,0,0,1-2-2V7A2.006,2.006,0,0,1,3,5H23V9A2.36,2.36,0,0,0,23.18,9.82Z" style="fill:#a65d4e"/><path d="M32,11l5-5V9a1.959,1.959,0,0,1-2,2Z" style="fill:#dce1eb"/><path d="M37,5V6l-5,5H27l6-6Z" style="fill:#f2f6fc"/><path d="M23.18,9.82,28,5h5l-6,6H25A1.785,1.785,0,0,1,23.18,9.82Z" style="fill:#dce1eb"/><path d="M28,5,23.18,9.82A2.36,2.36,0,0,1,23,9V5Z" style="fill:#f2f6fc"/><rect x="4" y="15" width="52" height="3" style="fill:#915041"/><path d="M4,13V7A2.006,2.006,0,0,1,6,5H3A2.006,2.006,0,0,0,1,7v6a2.006,2.006,0,0,0,2,2H6A2.006,2.006,0,0,1,4,13Z" style="fill:#915041"/><path d="M38,25H22a1,1,0,0,1-1-1v3a1,1,0,0,0,1,1H38a1,1,0,0,0,1-1V24A1,1,0,0,1,38,25Z" style="fill:#915041"/><rect x="21" y="20" width="18" height="5" rx="1" ry="1" style="fill:#e3a76f"/><g id="_Group_" data-name="&lt;Group&gt;"><path d="M48.5,51a2,2,0,0,1-2.83,0l-5.66-5.66a2,2,0,1,1,2.83-2.83l5.66,5.66A2,2,0,0,1,48.5,51Z" style="fill:#dce1eb"/><path d="M30,37a1,1,0,1,0-1,1A1,1,0,0,0,30,37Zm-1-2a1,1,0,1,0-1-1A1,1,0,0,0,29,35Zm3-4a1,1,0,1,0-1-1A1,1,0,0,0,32,31Zm0,5a1,1,0,0,0,1,1h2a1,1,0,0,0,1-1V34a1,1,0,0,0-1-1H33a1,1,0,0,0-1,1Zm5.93,4.43a12.671,12.671,0,1,1,.26-.24A2.84,2.84,0,0,1,37.93,40.43ZM26,36V34a1,1,0,0,0-1-1H23a1,1,0,0,0-1,1v2a1,1,0,0,0,1,1h2A1,1,0,0,0,26,36Z" style="fill:#65b1fc"/><rect x="32" y="33" width="4" height="4" rx="1" ry="1" style="fill:#e9edf5"/><rect x="22" y="33" width="4" height="4" rx="1" ry="1" style="fill:#e9edf5"/><circle cx="36" cy="49" r="1" style="fill:#915041"/><circle cx="33" cy="49" r="1" style="fill:#915041"/><circle cx="30" cy="49" r="1" style="fill:#915041"/><circle cx="27" cy="49" r="1" style="fill:#915041"/><circle cx="24" cy="49" r="1" style="fill:#915041"/><circle cx="32" cy="30" r="1" style="fill:#2b1505"/><circle cx="29" cy="37" r="1" style="fill:#2b1505"/><circle cx="29" cy="34" r="1" style="fill:#2b1505"/><path d="M57,4H3A3,3,0,0,0,0,7v6a3,3,0,0,0,3,3V49a7.008,7.008,0,0,0,7,7H50a7.008,7.008,0,0,0,7-7V16a3,3,0,0,0,3-3V7A3,3,0,0,0,57,4ZM29.414,10l4-4h2.172l-4,4ZM25,10a1.117,1.117,0,0,1-.547-.125.958.958,0,0,0,.254-.168L28.414,6h2.172l-4,4ZM24,7.586V6h1.586Zm12,.828V9a.915.915,0,0,1-1,1h-.586ZM55,49a5.006,5.006,0,0,1-5,5H10a5.006,5.006,0,0,1-5-5V16H55Zm3-36a1,1,0,0,1-1,1H3a1,1,0,0,1-1-1V7A1,1,0,0,1,3,6H22V9a2.916,2.916,0,0,0,3,3H35a2.916,2.916,0,0,0,3-3V6H57a1,1,0,0,1,1,1Z" style="fill:#2b1505"/><path d="M29.021,44.975a13.814,13.814,0,0,0,8.857-3.182l.848.847a3,3,0,0,0,.577,3.407l5.66,5.66h0a2.984,2.984,0,0,0,2.115.871,2.994,2.994,0,0,0,2.129-5.116L43.547,41.8a3,3,0,0,0-3.407-.576l-.808-.808a14.019,14.019,0,1,0-10.311,4.557Zm13.112-1.758,5.66,5.66a1,1,0,1,1-1.416,1.415l-5.66-5.659a1,1,0,1,1,1.416-1.416Zm-21.615-20.7a11.987,11.987,0,0,1,16.964,0h0a11.99,11.99,0,0,1-.008,16.973,3.032,3.032,0,0,1-.236.215,12.046,12.046,0,0,1-16.724-.224,11.988,11.988,0,0,1,0-16.965Z" style="fill:#2b1505"/><path d="M22,29a1,1,0,0,0,1-1V26h2v1a1,1,0,0,0,2,0V26a2,2,0,0,0-2-2H23a2,2,0,0,0-2,2v2A1,1,0,0,0,22,29Z" style="fill:#2b1505"/><path d="M32,28a1,1,0,0,0,1-1V26h2v1a1,1,0,0,0,2,0V26a2,2,0,0,0-2-2H33a2,2,0,0,0-2,2v1A1,1,0,0,0,32,28Z" style="fill:#2b1505"/><path d="M33,38h2a2,2,0,0,0,2-2V34a2,2,0,0,0-2-2H33a2,2,0,0,0-2,2v2A2,2,0,0,0,33,38Zm0-4h2v2l-2,0Z" style="fill:#2b1505"/><path d="M23,38h2a2,2,0,0,0,2-2V34a2,2,0,0,0-2-2H23a2,2,0,0,0-2,2v2A2,2,0,0,0,23,38Zm0-4h2v2l-2,0Z" style="fill:#2b1505"/><path d="M23,30a1,1,0,0,0,1,1h5a1,1,0,0,0,1-1V25a1,1,0,0,0-2,0v4H24A1,1,0,0,0,23,30Z" style="fill:#2b1505"/><path d="M36,29H35a1,1,0,0,0,0,2h1a1,1,0,0,0,0-2Z" style="fill:#2b1505"/></g></g></svg>