<svg id="_1-Box" data-name="1-Box" xmlns="http://www.w3.org/2000/svg" viewBox="0 0 60 60"><title>1-Box</title><g id="_Group_" data-name="&lt;Group&gt;"><path d="M56,15V49a6,6,0,0,1-6,6H10a6,6,0,0,1-6-6V15Z" style="fill:#b46e5a"/><path d="M23.18,9.82A1.785,1.785,0,0,0,25,11H35a1.959,1.959,0,0,0,2-2V5H57a2.006,2.006,0,0,1,2,2v6a2.006,2.006,0,0,1-2,2H3a2.006,2.006,0,0,1-2-2V7A2.006,2.006,0,0,1,3,5H23V9A2.36,2.36,0,0,0,23.18,9.82Z" style="fill:#a65d4e"/><path d="M32,11l5-5V9a1.959,1.959,0,0,1-2,2Z" style="fill:#dce1eb"/><path d="M37,5V6l-5,5H27l6-6Z" style="fill:#f2f6fc"/><path d="M23.18,9.82,28,5h5l-6,6H25A1.785,1.785,0,0,1,23.18,9.82Z" style="fill:#dce1eb"/><path d="M28,5,23.18,9.82A2.36,2.36,0,0,1,23,9V5Z" style="fill:#f2f6fc"/><rect x="4" y="15" width="52" height="3" style="fill:#915041"/><path d="M4,13V7A2.006,2.006,0,0,1,6,5H3A2.006,2.006,0,0,0,1,7v6a2.006,2.006,0,0,0,2,2H6A2.006,2.006,0,0,1,4,13Z" style="fill:#915041"/><path d="M38,25H22a1,1,0,0,1-1-1v3a1,1,0,0,0,1,1H38a1,1,0,0,0,1-1V24A1,1,0,0,1,38,25Z" style="fill:#915041"/></g><g id="_Group_2" data-name="&lt;Group&gt;"><path d="M37,35V47a3,3,0,0,1-3,3H26a3,3,0,0,1-3-3V35Z" style="fill:#915041"/><path d="M37,33v2H23V33a3,3,0,0,1,3-3h8A3,3,0,0,1,37,33Z" style="fill:#f2f6fc"/><rect x="21" y="20" width="18" height="5" rx="1" ry="1" style="fill:#e3a76f"/><path d="M57,4H3A3,3,0,0,0,0,7v6a3,3,0,0,0,3,3V49a7.008,7.008,0,0,0,7,7H50a7.008,7.008,0,0,0,7-7V16a3,3,0,0,0,3-3V7A3,3,0,0,0,57,4ZM29.414,10l4-4h2.172l-4,4ZM25,10a1.119,1.119,0,0,1-.489-.1l3.9-3.9h2.172l-4,4ZM24,7.586V6h1.586Zm12,.828V9a.915.915,0,0,1-1,1h-.586ZM55,49a5.006,5.006,0,0,1-5,5H10a5.006,5.006,0,0,1-5-5V16H55Zm3-36a1,1,0,0,1-1,1H3a1,1,0,0,1-1-1V7A1,1,0,0,1,3,6H22V9a3.24,3.24,0,0,0,.246,1.176l.006.013.008.017A2.786,2.786,0,0,0,25,12H35a2.916,2.916,0,0,0,3-3V6H57a1,1,0,0,1,1,1Z" style="fill:#2b1505"/><path d="M22,26H38a2,2,0,0,0,2-2V21a2,2,0,0,0-2-2H22a2,2,0,0,0-2,2v3A2,2,0,0,0,22,26Zm0-5H38v3L22,24Z" style="fill:#2b1505"/><path d="M34,29H26a4,4,0,0,0-4,4V47a4,4,0,0,0,4,4h8a4,4,0,0,0,4-4V33A4,4,0,0,0,34,29Zm-8,2h8a2,2,0,0,1,2,2v1H24V33A2,2,0,0,1,26,31Zm8,18H26a2,2,0,0,1-2-2V36H36V47A2,2,0,0,1,34,49Z" style="fill:#2b1505"/></g><circle cx="26" cy="38" r="1" style="fill:#b46e5a"/><circle cx="30" cy="38" r="1" style="fill:#b46e5a"/><circle cx="34" cy="38" r="1" style="fill:#b46e5a"/><circle cx="32" cy="41" r="1" style="fill:#b46e5a"/><circle cx="28" cy="41" r="1" style="fill:#b46e5a"/><circle cx="26" cy="44" r="1" style="fill:#b46e5a"/><circle cx="30" cy="44" r="1" style="fill:#b46e5a"/><circle cx="34" cy="44" r="1" style="fill:#b46e5a"/><circle cx="28" cy="47" r="1" style="fill:#b46e5a"/><circle cx="32" cy="47" r="1" style="fill:#b46e5a"/></svg>